<svg width="135" height="42" viewBox="0 0 135 42" fill="none" xmlns="http://www.w3.org/2000/svg">
    <path
        d="M33.6552 0H8.22548C3.68267 0 0 3.69317 0 8.24892V33.7511C0 38.3068 3.68267 42 8.22548 42H33.6552C38.198 42 41.8807 38.3068 41.8807 33.7511V8.24892C41.8807 3.69317 38.198 0 33.6552 0Z"
        fill="#662D91" />
    <path
        d="M20.7675 33.7846C27.8732 33.7846 33.6336 28.0078 33.6336 20.8818C33.6336 13.7558 27.8732 7.979 20.7675 7.979C13.6617 7.979 7.90137 13.7558 7.90137 20.8818C7.90137 28.0078 13.6617 33.7846 20.7675 33.7846Z"
        fill="#0066FF" />
    <path
        d="M20.9402 35.4863C12.8418 35.4863 6.25293 28.8787 6.25293 20.7572C6.25293 12.6357 12.8418 6.02808 20.9402 6.02808C29.0386 6.02808 35.6275 12.6357 35.6275 20.7572C35.6275 28.8787 29.0386 35.4863 20.9402 35.4863ZM20.9402 9.35919C14.672 9.35919 9.57458 14.4712 9.57458 20.7572C9.57458 27.0432 14.672 32.1552 20.9402 32.1552C27.2084 32.1552 32.3058 27.0432 32.3058 20.7572C32.3058 14.4712 27.2084 9.35919 20.9402 9.35919Z"
        fill="white" />
    <path
        d="M36.9801 22.6382H4.90106C3.98443 22.6382 3.24023 21.8919 3.24023 20.9727C3.24023 20.0534 3.98443 19.3071 4.90106 19.3071H36.9801C37.8968 19.3071 38.641 20.0534 38.641 20.9727C38.641 21.8919 37.8968 22.6382 36.9801 22.6382Z"
        fill="white" />
    <path
        d="M49.8839 16.6904H51.0698L51.0395 18.5775H51.0546C51.3511 17.3579 52.3887 16.5691 53.9739 16.5691C56.1097 16.5691 57.4136 17.995 57.4136 20.243C57.4136 22.6215 56.0946 24.1536 53.9437 24.1536C52.3857 24.1536 51.3481 23.4103 51.0365 22.4152H51.0214C51.0365 22.9067 51.0667 23.6803 51.0667 24.0201V26.9781H49.8809V16.6904H49.8839ZM56.2307 20.2582C56.2307 18.6685 55.2959 17.64 53.7561 17.64C52.2163 17.64 51.103 18.6958 51.0728 20.3462V20.7921C51.0728 22.1907 52.1255 23.0827 53.7864 23.0827C55.2838 23.0827 56.2338 21.9814 56.2338 20.2582H56.2307Z"
        fill="#0066FF" />
    <path
        d="M58.17 16.6906H59.3559L59.3256 18.8173H59.3408C59.6826 17.537 60.4389 16.5723 62.009 16.5723C63.579 16.5723 64.529 17.6735 64.529 19.4422C64.529 19.9489 64.4836 20.4828 64.4533 20.7498H63.3703C63.4006 20.5253 63.4308 20.1552 63.4308 19.6941C63.4308 18.341 62.9256 17.6432 61.7246 17.6432C60.2271 17.6432 59.3529 18.9508 59.3529 20.7802V24.0354H58.167V16.6906H58.17Z"
        fill="#0066FF" />
    <path d="M65.3975 16.6511H66.6257V24.0354H65.3975V16.6511Z" fill="#0066FF" />
    <path
        d="M67.0703 16.6907H68.4649L71.0878 22.8918H71.1331L73.7711 16.6907H75.0447L71.7684 24.0355H70.3466L67.0703 16.6907Z"
        fill="#0066FF" />
    <path
        d="M74.9933 21.9239C74.9933 20.8833 75.7193 19.9914 77.6766 19.9914H80.6564V19.4574C80.6564 18.1923 79.9152 17.5825 78.4178 17.5825C77.0685 17.5825 76.3274 18.0892 76.3274 19.0843C76.3274 19.1298 76.3274 19.2329 76.3425 19.3512H75.2443C75.2292 19.2481 75.2141 19.0387 75.2141 18.9053C75.2141 17.449 76.4605 16.5723 78.445 16.5723C80.5959 16.5723 81.8393 17.6432 81.8393 19.5606V24.0354H80.6534C80.6685 23.6926 80.6988 23.01 80.7139 22.2971H80.6988C80.4477 23.4256 79.528 24.1568 77.7038 24.1568C76.043 24.1568 74.9902 23.3103 74.9902 21.9269L74.9933 21.9239ZM80.6564 20.9561V20.853H77.7795C76.5785 20.853 76.1035 21.211 76.1035 21.9239C76.1035 22.6368 76.7842 23.1435 77.9428 23.1435C79.6036 23.1435 80.6564 22.2971 80.6564 20.9591V20.9561Z"
        fill="#0066FF" />
    <path
        d="M83.4056 21.3414V17.7281H82.1895V16.6875H83.1666C83.4025 16.6875 83.4933 16.5692 83.5236 16.1809L83.5841 15.022H84.5915V16.6875H87.2445V17.7281H84.5915V21.2655C84.5915 22.382 84.9484 23.0494 86.0435 23.0494C86.5487 23.0494 87.0207 22.9614 87.184 22.9008V23.911C86.9602 23.999 86.5306 24.09 85.9377 24.09C84.1588 24.09 83.4025 22.9614 83.4025 21.3384L83.4056 21.3414Z"
        fill="#0066FF" />
    <path
        d="M94.5145 20.6374H88.7757C88.8513 22.1998 89.7982 23.1798 91.2382 23.1798C92.4695 23.1798 93.3135 22.5548 93.4163 21.59H94.5145C94.4389 23.1798 93.1501 24.1931 91.2231 24.1931C89.0147 24.1931 87.5898 22.7368 87.5898 20.4615C87.5898 18.1861 88.9996 16.6116 91.1928 16.6116C93.3861 16.6116 94.5145 17.904 94.5145 20.0913V20.6405V20.6374ZM93.4163 19.6848C93.4163 18.3924 92.6147 17.6188 91.2231 17.6188C89.9192 17.6188 89.045 18.3772 88.8211 19.7758H93.4163V19.6879V19.6848Z"
        fill="#0066FF" />
    <path d="M96.877 16.6725H98.9583V22.2213H104.767V24.0325H96.877V16.6694V16.6725Z" fill="#0066FF" />
    <path d="M105.475 16.7695H107.402V24.0355H105.475V16.7695Z" fill="#0066FF" />
    <path
        d="M108.533 16.6724H111.356L117.279 21.4506H117.297V16.6724H119.282V24.0354H117.231L110.527 18.6413H110.518V24.0354H108.533V16.6724Z"
        fill="#0066FF" />
    <path
        d="M120.371 16.6724H128.718V18.3743H122.452V19.7062H127.326V20.9591H122.452V22.3365H128.845V24.0384H120.371V16.6754V16.6724Z"
        fill="#0066FF" />
    <path d="M131.001 16.7026V16.9969H130.505V18.3682H130.154V16.9969H129.655V16.7026H131.001Z"
        fill="#0066FF" />
    <path
        d="M131.522 18.3712H131.198V16.7026H131.703L132.006 18.0132L132.305 16.7026H132.805V18.3712H132.481V17.2427C132.481 17.2093 132.481 17.1638 132.481 17.1061C132.481 17.0485 132.481 17.003 132.481 16.9696L132.166 18.3682H131.827L131.516 16.9696C131.516 16.9999 131.516 17.0455 131.516 17.1061C131.516 17.1668 131.516 17.2093 131.516 17.2427V18.3712H131.522Z"
        fill="#0066FF" />
</svg>