<svg xmlns="http://www.w3.org/2000/svg" width="512" height="512" viewBox="0 0 512 512" fill="none">
<path d="M0 0 C3.11446864 2.61497839 6.04313982 5.33011212 8.8125 8.3125 C9.40546875 8.88871094 9.9984375 9.46492188 10.609375 10.05859375 C24.7155364 24.52014294 29.45294515 43.95835393 29.2109375 63.609375 C28.70030605 81.1484551 22.74326744 97.2231663 10.8125 110.3125 C10.08546875 111.13105469 9.3584375 111.94960938 8.609375 112.79296875 C-3.85841626 126.08524298 -21.43396474 134.91585462 -39.7890625 135.6484375 C-61.37617147 135.97594641 -80.97888511 131.50077984 -97.59765625 116.90625 C-113.3909949 101.08909033 -122.1640812 81.91163851 -122.1875 59.3125 C-121.38277254 39.04975177 -113.78896655 18.93490682 -98.67480469 4.90869141 C-90.9301179 -1.89939666 -82.92271576 -7.10871501 -73.1875 -10.6875 C-72.09695313 -11.09871094 -71.00640625 -11.50992187 -69.8828125 -11.93359375 C-46.20551383 -19.55357072 -19.7167875 -14.99263209 0 0 Z M-75.1875 26.3125 C-75.80367188 26.79074219 -76.41984375 27.26898438 -77.0546875 27.76171875 C-83.49546726 33.44391779 -88.4235731 42.88987469 -90.1875 51.3125 C-91.07943768 66.06602653 -89.53506162 77.34944061 -80.1875 89.3125 C-79.70925781 89.92867188 -79.23101562 90.54484375 -78.73828125 91.1796875 C-73.05608221 97.62046726 -63.61012531 102.5485731 -55.1875 104.3125 C-40.43397347 105.20443768 -29.15055939 103.66006162 -17.1875 94.3125 C-16.57132812 93.83425781 -15.95515625 93.35601562 -15.3203125 92.86328125 C-8.87953274 87.18108221 -3.9514269 77.73512531 -2.1875 69.3125 C-1.29556232 54.55897347 -2.83993838 43.27555939 -12.1875 31.3125 C-12.66574219 30.69632812 -13.14398438 30.08015625 -13.63671875 29.4453125 C-19.31891779 23.00453274 -28.76487469 18.0764269 -37.1875 16.3125 C-51.94102653 15.42056232 -63.22444061 16.96493838 -75.1875 26.3125 Z " fill="#fff" transform="translate(483.1875,330.6875)"/>
<path d="M0 0 C3.66944815 3.00099539 6.96937735 6.29600157 10.25927734 9.70410156 C10.99662109 10.41050781 11.73396484 11.11691406 12.49365234 11.84472656 C25.31131979 24.86111753 30.5911446 43.35368285 30.75927734 61.14160156 C30.56892972 81.30357889 24.43897083 99.71989604 9.96240234 114.09472656 C9.07037109 114.95582031 8.17833984 115.81691406 7.25927734 116.70410156 C6.55287109 117.44144531 5.84646484 118.17878906 5.11865234 118.93847656 C-8.02484243 131.88130729 -26.77925351 137.02626523 -44.74072266 137.20410156 C-64.65940827 137.00688685 -82.95649061 130.68240626 -97.13134766 116.40722656 C-97.99244141 115.51519531 -98.85353516 114.62316406 -99.74072266 113.70410156 C-100.47806641 112.99769531 -101.21541016 112.29128906 -101.97509766 111.56347656 C-108.41805681 105.02062657 -112.16443252 97.05221994 -115.74072266 88.70410156 C-116.19962891 87.63804688 -116.65853516 86.57199219 -117.13134766 85.47363281 C-122.53616906 70.15362847 -122.13396851 49.62771229 -115.74072266 34.70410156 C-115.47759277 34.06859375 -115.21446289 33.43308594 -114.94335938 32.77832031 C-110.53815736 22.34744016 -104.85369323 14.53569743 -96.74072266 6.70410156 C-96.03431641 5.96675781 -95.32791016 5.22941406 -94.60009766 4.46972656 C-70.40433808 -19.35663211 -26.63378874 -19.82779112 0 0 Z M-80.72509766 34.97363281 C-88.74809707 45.8419983 -89.81411555 57.62450202 -88.74072266 70.70410156 C-86.23852677 82.82902792 -78.54841007 92.46409197 -68.74072266 99.70410156 C-57.4345895 105.9936061 -45.13461015 107.64269863 -32.42822266 105.02050781 C-20.9351883 101.08610259 -11.04831615 93.44751368 -5.10009766 82.75488281 C0.03534028 71.70188565 1.65719136 58.3931844 -2.36572266 46.64160156 C-7.88736041 34.08371014 -16.56582329 24.9233013 -29.29541016 19.57910156 C-48.62491836 12.66247243 -67.78006234 20.01442242 -80.72509766 34.97363281 Z " fill="#fff" transform="translate(300.74072265625,13.2958984375)"/>
<path d="M0 0 C3.66944815 3.00099539 6.96937735 6.29600157 10.25927734 9.70410156 C10.99662109 10.41050781 11.73396484 11.11691406 12.49365234 11.84472656 C25.31131979 24.86111753 30.5911446 43.35368285 30.75927734 61.14160156 C30.56892972 81.30357889 24.43897083 99.71989604 9.96240234 114.09472656 C9.07037109 114.95582031 8.17833984 115.81691406 7.25927734 116.70410156 C6.55287109 117.44144531 5.84646484 118.17878906 5.11865234 118.93847656 C-8.02484243 131.88130729 -26.77925351 137.02626523 -44.74072266 137.20410156 C-64.65940827 137.00688685 -82.95649061 130.68240626 -97.13134766 116.40722656 C-97.99244141 115.51519531 -98.85353516 114.62316406 -99.74072266 113.70410156 C-100.47806641 112.99769531 -101.21541016 112.29128906 -101.97509766 111.56347656 C-114.7927651 98.54708559 -120.07258991 80.05452027 -120.24072266 62.26660156 C-120.04816311 41.87033376 -113.41799982 22.35865849 -98.74072266 7.70410156 C-71.84587872 -16.54475368 -30.22103695 -22.49835401 0 0 Z M-73.74072266 27.70410156 C-74.35689453 28.18234375 -74.97306641 28.66058594 -75.60791016 29.15332031 C-82.04868992 34.83551935 -86.97679576 44.28147626 -88.74072266 52.70410156 C-89.63266034 67.45762809 -88.08828427 78.74104217 -78.74072266 90.70410156 C-78.26248047 91.32027344 -77.78423828 91.93644531 -77.29150391 92.57128906 C-71.60930487 99.01206883 -62.16334796 103.94017466 -53.74072266 105.70410156 C-38.98719613 106.59603924 -27.70378205 105.05166318 -15.74072266 95.70410156 C-15.12455078 95.22585938 -14.50837891 94.74761719 -13.87353516 94.25488281 C-7.43275539 88.57268378 -2.50464956 79.12672687 -0.74072266 70.70410156 C0.15121502 55.95057503 -1.39316104 44.66716096 -10.74072266 32.70410156 C-11.21896484 32.08792969 -11.69720703 31.47175781 -12.18994141 30.83691406 C-17.87214044 24.3961343 -27.31809735 19.46802846 -35.74072266 17.70410156 C-50.49424919 16.81216388 -61.77766326 18.35653995 -73.74072266 27.70410156 Z " fill="#fff" transform="translate(119.74072265625,329.2958984375)"/>
<path d="M0 0 C10.92504023 6.01768214 20.22584433 13.9700415 29.28125 22.46875 C31.57912963 24.60815518 33.91658807 26.6601899 36.3125 28.6875 C40.28157352 32.14312048 43.62843285 35.96938166 47 40 C47.75023437 40.86238281 48.50046875 41.72476563 49.2734375 42.61328125 C80.67075988 79.21047564 102 128.3530095 102 177 C91.77 177.66 81.54 178.32 71 179 C70.62875 175.535 70.2575 172.07 69.875 168.5 C63.86456906 118.35790228 39.21610538 70.17851016 -0.56469727 38.41186523 C-3.35090923 36.23888293 -6.16816085 34.11336511 -9 32 C-9.8765625 31.33613281 -10.753125 30.67226562 -11.65625 29.98828125 C-13.42987326 28.64869607 -15.21333087 27.32213515 -17 26 C-11.93516042 16.84303837 -6.19010902 8.41954466 0 0 Z " fill="#fff" transform="translate(379,97)"/>
<path d="M0 0 C4.41829582 4.04809253 7.49934803 8.50917068 10.6875 13.5625 C11.17283203 14.31724609 11.65816406 15.07199219 12.15820312 15.84960938 C14.27991667 19.17118851 16.28226934 22.44837559 18 26 C17.21238281 26.59425781 16.42476563 27.18851563 15.61328125 27.80078125 C-28.32139647 61.13852646 -59.78448705 105.32702807 -68 161 C-68.805302 166.99153662 -69.41748614 172.98069013 -70 179 C-80.23 178.34 -90.46 177.68 -101 177 C-101 143.10867055 -90.05135097 109.60403921 -74 80 C-73.63181152 79.31873047 -73.26362305 78.63746094 -72.88427734 77.93554688 C-64.74964467 63.07770743 -54.78046945 49.69646503 -43.1953125 37.34765625 C-41.22472108 35.24031561 -39.35704719 33.08186306 -37.5 30.875 C-27.09255516 18.9738941 -13.44283777 8.30614366 0 0 Z " fill="#fff" transform="translate(132,97)"/>
<path d="M0 0 C3.24562274 0.5762528 6.12976525 1.34501236 9.16015625 2.63671875 C9.94293945 2.96381836 10.72572266 3.29091797 11.53222656 3.62792969 C12.3672168 3.97758789 13.20220703 4.32724609 14.0625 4.6875 C60.86154805 23.70441876 114.17018287 25.75385507 161.26904297 6.05078125 C164.18261562 4.79314187 167.08625558 3.52007418 169.96484375 2.18408203 C172.84169275 0.85878362 174.78931653 0 178 0 C179.8564979 3.66362085 181.70776879 7.3298296 183.55419922 10.99853516 C184.18329431 12.24665722 184.81382241 13.49405805 185.44580078 14.74072266 C186.35303597 16.53098111 187.25472596 18.32404628 188.15625 20.1171875 C188.70087891 21.19597168 189.24550781 22.27475586 189.80664062 23.38623047 C191 26 191 26 191 28 C173.39611166 36.00284685 156.19760568 42.53858401 137.3125 46.75 C135.97832031 47.04837769 135.97832031 47.04837769 134.6171875 47.3527832 C119.64225347 50.51919932 104.94390363 51.40916694 89.6875 51.375 C88.76924438 51.37445618 87.85098877 51.37391235 86.90490723 51.37335205 C51.79028495 51.27815126 18.61105484 43.39835927 -13 28 C-11.74577315 24.01207054 -10.28484419 20.33050596 -8.3984375 16.6015625 C-7.90859375 15.62832031 -7.41875 14.65507812 -6.9140625 13.65234375 C-6.40617188 12.65332031 -5.89828125 11.65429688 -5.375 10.625 C-4.859375 9.60277344 -4.34375 8.58054687 -3.8125 7.52734375 C-2.54528127 5.01637331 -1.27435444 2.50735439 0 0 Z " fill="#fff" transform="translate(167,461)"/>
</svg>
