<svg xmlns="http://www.w3.org/2000/svg" width="512" height="512" fill="none" viewBox="0 0 512 512">
<path d="M0 0 C2.50649272 1.93876632 4.87340588 3.9600454 7.22265625 6.0859375 C7.99222656 6.76269531 8.76179688 7.43945312 9.5546875 8.13671875 C19.12765762 17.05735701 25.55792325 28.55889344 29.22265625 41.0859375 C29.22265625 42.4059375 29.22265625 43.7259375 29.22265625 45.0859375 C30.38475113 45.07927567 31.54684601 45.07261383 32.74415588 45.06575012 C43.70547356 45.00488729 54.66675687 44.95993995 65.6282053 44.93050098 C71.2633577 44.91485724 76.89837348 44.8936423 82.53344727 44.85961914 C87.97344744 44.82698 93.41331635 44.80907477 98.85340691 44.80130577 C100.92700199 44.79577047 103.00059003 44.78496137 105.0741291 44.76874733 C107.9826004 44.74691276 110.89053196 44.74397313 113.79907227 44.74536133 C114.65287476 44.7345755 115.50667725 44.72378967 116.38635254 44.712677 C122.31197959 44.74320245 127.35007635 45.55471799 131.96484375 49.62109375 C136.58206542 55.84638228 137.09247339 60.35642606 136.22265625 68.0859375 C134.57720358 72.15701437 132.41017898 74.34974078 128.70529175 76.64656067 C124.26444094 78.48196887 120.57586824 78.52618359 115.82080078 78.51831055 C114.89333542 78.5285022 113.96587006 78.53869385 113.01029968 78.54919434 C109.95862755 78.57927864 106.90726958 78.58858341 103.85546875 78.59765625 C101.73411011 78.61450629 99.61276144 78.63265697 97.49142456 78.65205383 C91.91840732 78.69952443 86.3454305 78.72935295 80.77227783 78.75549316 C75.08117697 78.7853134 69.39021529 78.83183876 63.69921875 78.87695312 C52.54043743 78.96295288 41.38162744 79.0303131 30.22265625 79.0859375 C29.9525322 79.91008652 29.68240814 80.73423553 29.40409851 81.58335876 C29.04733536 82.66436356 28.6905722 83.74536835 28.32299805 84.85913086 C27.79406197 86.46660439 27.79406197 86.46660439 27.25444031 88.10655212 C20.72117679 106.97204015 6.55893536 120.91808258 -10.77734375 130.0859375 C-21.61745831 134.84508107 -31.12414292 136.28524761 -42.83984375 136.3359375 C-44.5868457 136.366875 -44.5868457 136.366875 -46.36914062 136.3984375 C-57.35325233 136.44739176 -67.1415448 134.49525288 -76.90234375 129.3984375 C-77.579021 129.05176025 -78.25569824 128.70508301 -78.95288086 128.34790039 C-84.81012616 125.25127923 -89.87925618 121.55452858 -94.77734375 117.0859375 C-95.38578125 116.56902344 -95.99421875 116.05210937 -96.62109375 115.51953125 C-106.94063224 106.16158612 -112.7185651 93.13769629 -116.77734375 80.0859375 C-116.77734375 79.4259375 -116.77734375 78.7659375 -116.77734375 78.0859375 C-118.04901681 78.08962467 -119.32068987 78.09331184 -120.63089848 78.09711075 C-150.82094184 78.18375067 -181.01095163 78.24970379 -211.20108948 78.29019882 C-214.91734437 78.29520162 -218.63359901 78.30037891 -222.34985352 78.30566406 C-223.08968981 78.3067133 -223.8295261 78.30776255 -224.59178167 78.30884358 C-236.56956703 78.32624665 -248.54727557 78.35778378 -260.52501536 78.39454868 C-272.81618925 78.43196088 -285.10732291 78.45417393 -297.3985514 78.46229148 C-304.98232821 78.4677787 -312.56588786 78.48510659 -320.14959782 78.51760337 C-325.96577605 78.54125589 -331.78181527 78.54375663 -337.598032 78.53836823 C-339.98330269 78.53946947 -342.36858153 78.54743662 -344.75380325 78.5627594 C-348.0096795 78.58265092 -351.26462545 78.57787896 -354.52052307 78.56695557 C-355.46508836 78.57860693 -356.40965365 78.5902583 -357.38284212 78.60226274 C-363.37664355 78.54788276 -366.85679498 77.56019445 -371.77734375 74.0859375 C-375.46367259 70.30508741 -376.08095755 67.20464881 -376.27734375 62.0859375 C-376.09364554 56.96772521 -375.34730962 53.94536006 -371.77734375 50.0859375 C-367.44394896 46.07754732 -364.24189198 44.96793945 -358.44327927 44.9472723 C-357.57839976 44.94179786 -356.71352026 44.93632341 -355.82243228 44.93068308 C-354.87691036 44.92970497 -353.93138845 44.92872686 -352.95721436 44.92771912 C-351.94924278 44.92278114 -350.9412712 44.91784316 -349.90275502 44.91275555 C-346.51557534 44.89736251 -343.12841465 44.889015 -339.74121094 44.88061523 C-337.31700472 44.87103813 -334.89280019 44.86102815 -332.46859741 44.85061646 C-327.24448096 44.82915599 -322.02036306 44.81071522 -316.7962265 44.79501152 C-309.24299718 44.77230139 -301.68979578 44.74416014 -294.13659015 44.71469224 C-281.88208806 44.66703036 -269.62757454 44.62376237 -257.37304688 44.58325195 C-245.46874096 44.54388989 -233.56444519 44.50246195 -221.66015625 44.45825195 C-220.92640623 44.45552768 -220.19265621 44.45280341 -219.43667135 44.44999658 C-215.75567223 44.43631699 -212.07467326 44.42259674 -208.39367437 44.40885627 C-177.85491851 44.29491354 -147.31614118 44.18817243 -116.77734375 44.0859375 C-116.50681183 43.26138062 -116.23627991 42.43682373 -115.95755005 41.58728027 C-115.60046967 40.50595825 -115.24338928 39.42463623 -114.87548828 38.31054688 C-114.52245636 37.23848999 -114.16942444 36.16643311 -113.80569458 35.06188965 C-107.43372996 16.62201364 -93.926381 3.33746657 -77.02734375 -5.7265625 C-51.95724835 -17.50813739 -22.95383706 -15.81910008 0 0 Z M-70.77734375 30.0859375 C-71.68419922 30.83810547 -71.68419922 30.83810547 -72.609375 31.60546875 C-80.72018397 38.86808855 -85.05000839 49.33065927 -85.77734375 60.0859375 C-85.90822243 73.22989605 -81.1445651 83.45808332 -72.12109375 92.80078125 C-63.66746708 100.63633616 -52.64010687 104.65593612 -41.16015625 104.3359375 C-29.52767743 103.11548071 -18.59569131 97.84185113 -10.77734375 89.0859375 C-2.77294459 77.50476942 -0.48465895 66.87898348 -1.77734375 53.0859375 C-4.03195954 41.90736339 -11.52626253 32.54242127 -20.77734375 26.0859375 C-37.30277927 17.2264679 -56.27336144 17.09213122 -70.77734375 30.0859375 Z " fill="#fff" transform="translate(375.77734375,375.9140625)"/>
<path d="M0 0 C1.14984375 0.474375 2.2996875 0.94875 3.484375 1.4375 C22.47436539 10.06177511 34.98659145 24.99120914 43 44 C43.5534044 45.57814505 44.0900917 47.16224936 44.61010742 48.75170898 C44.87264816 49.550681 45.1351889 50.34965302 45.40568542 51.1728363 C45.60180923 51.77580032 45.79793304 52.37876434 46 53 C47.76193443 53.00546844 47.76193443 53.00546844 49.5594635 53.01104736 C60.63870541 53.04801681 71.71766988 53.1058111 82.79670048 53.18390274 C88.49232688 53.22338211 94.18779856 53.2555685 99.88354492 53.27099609 C105.38209109 53.2861594 110.88021193 53.3205998 116.37856865 53.36830902 C118.47443377 53.38312606 120.57035961 53.3910412 122.66627693 53.39188385 C125.60618357 53.39425422 128.54491547 53.42134031 131.48461914 53.45410156 C132.34777237 53.4490712 133.2109256 53.44404083 134.10023499 53.43885803 C141.08283156 53.55894638 145.45782512 55.39264115 150.4375 60.5 C152.74580705 65.6706078 152.75788897 70.42683665 152 76 C149.84829659 80.46279226 147.09499214 83.2358803 143 86 C140.26561488 86.85912015 137.8074825 87.12407417 134.95037842 87.12025452 C134.15394928 87.12162918 133.35752014 87.12300385 132.53695679 87.12442017 C131.67236847 87.12082489 130.80778015 87.11722961 129.91699219 87.11352539 C128.54086258 87.11374443 128.54086258 87.11374443 127.13693237 87.1139679 C124.10688913 87.11327166 121.07690749 87.10549275 118.046875 87.09765625 C115.94508905 87.09579104 113.84330266 87.09436762 111.74151611 87.09336853 C106.21116942 87.08955144 100.68084901 87.07972801 95.1505127 87.06866455 C89.50659541 87.05843309 83.86267388 87.05386719 78.21875 87.04882812 C67.14582179 87.03810505 56.07291308 87.02103829 45 87 C44.85377197 88.09546143 44.70754395 89.19092285 44.55688477 90.31958008 C42.16897986 106.10110858 30.97606302 120.00660841 19 130 C1.38318034 142.95480762 -18.7574626 147.31657732 -40.26318359 144.72753906 C-59.12735967 141.61946244 -76.62028699 131.07840347 -88.12109375 115.83203125 C-90.35239903 112.46883722 -92.37731077 109.04057736 -94.3125 105.5 C-94.80121582 104.61115112 -94.80121582 104.61115112 -95.29980469 103.7043457 C-97.15851026 100.14311611 -98.48244312 96.61444019 -99.61010742 92.75585938 C-99.87264816 91.86298218 -100.1351889 90.97010498 -100.40568542 90.0501709 C-100.60180923 89.3736145 -100.79793304 88.69705811 -101 88 C-102.89204839 87.99641747 -102.89204839 87.99641747 -104.82231998 87.99276257 C-134.76806287 87.93539634 -164.71372543 87.86266128 -194.65938118 87.77101372 C-198.34559298 87.75974562 -202.03180515 87.74860716 -205.71801758 87.73754883 C-206.45187264 87.73534514 -207.1857277 87.73314146 -207.94182079 87.730871 C-219.82255644 87.6955036 -231.70329203 87.67063632 -243.5840608 87.64965298 C-255.77584051 87.62788648 -267.96755194 87.594828 -280.15927356 87.55129844 C-287.68155034 87.52479631 -295.20374204 87.50709036 -302.72606318 87.50065396 C-308.495275 87.49477384 -314.2643456 87.4731791 -320.03349113 87.44572449 C-322.39938387 87.43692509 -324.76530188 87.4332256 -327.13121033 87.43499184 C-330.36073363 87.43664168 -333.5896649 87.41996918 -336.81910706 87.39872742 C-337.75589045 87.40357499 -338.69267384 87.40842257 -339.6578446 87.41341704 C-345.77783347 87.34696042 -350.96613056 86.67334235 -355.7421875 82.46484375 C-360.35940917 76.23955522 -360.86981714 71.72951144 -360 64 C-358.36213872 59.94770529 -356.1922915 57.75504569 -352.52855492 55.43490124 C-347.85475165 53.53428009 -343.85987128 53.59315466 -338.86343384 53.63923645 C-337.8455863 53.63667318 -336.82773877 53.6341099 -335.77904737 53.63146895 C-332.37027771 53.62652969 -328.96195148 53.64302678 -325.55322266 53.65942383 C-323.10901907 53.66027007 -320.66481472 53.65979502 -318.22061157 53.65809631 C-312.95936004 53.65741328 -307.69824639 53.66591939 -302.43703079 53.68280983 C-294.83026615 53.70721442 -287.22355544 53.71500658 -279.61675589 53.7187738 C-267.27458397 53.725336 -254.93247162 53.74529087 -242.59033203 53.77368164 C-230.60270485 53.80122821 -218.61509386 53.82245886 -206.62744141 53.83520508 C-205.88824284 53.83599325 -205.14904428 53.83678142 -204.38744576 53.83759347 C-200.67902 53.84150865 -196.97059412 53.84529976 -193.26216817 53.84902918 C-162.50806881 53.88011788 -131.75404346 53.93317073 -101 54 C-100.80133835 53.24985123 -100.6026767 52.49970245 -100.397995 51.7268219 C-100.00122307 50.24664833 -100.00122307 50.24664833 -99.59643555 48.73657227 C-99.3358989 47.75954849 -99.07536224 46.78252472 -98.80693054 45.77589417 C-95.85616752 35.62507521 -90.0114047 26.79983575 -83 19 C-82.22269531 18.08347656 -82.22269531 18.08347656 -81.4296875 17.1484375 C-62.19661315 -4.01760914 -26.06187388 -11.22665337 0 0 Z M-61 44 C-63.04376565 46.87100413 -64.58115246 49.78008477 -66 53 C-66.30550781 53.63421875 -66.61101562 54.2684375 -66.92578125 54.921875 C-71.33449756 65.03475981 -70.52135653 75.75839895 -67 86 C-62.38761798 96.28575926 -54.7414497 104.24265241 -44.5546875 109.02734375 C-33.72989073 113.14871133 -22.28837785 113.84594732 -11.48828125 109.25390625 C-0.89438283 103.91537973 7.61040288 96.23476095 12 85 C12.35578125 84.10023437 12.7115625 83.20046875 13.078125 82.2734375 C15.90889212 72.22181525 14.98385185 60.16972742 10 51 C3.26584605 39.93036198 -5.69171309 31.93644673 -18.4375 28.75 C-35.03552401 25.60063134 -49.6895774 31.87054679 -61 44 Z " fill="#fff" transform="translate(360,4)"/>
<path d="M0 0 C14.27494405 11.62059867 26.09795427 26.33776268 29 45 C30.91662288 44.99446924 30.91662288 44.99446924 32.87196541 44.98882675 C63.20028784 44.90220319 93.52857689 44.8362419 123.85699333 44.79573868 C127.58955827 44.79073583 131.32212295 44.78555854 135.0546875 44.78027344 C135.79777672 44.7792242 136.54086593 44.77817495 137.306473 44.77709392 C149.33989919 44.7596867 161.37324896 44.72814728 173.40662982 44.69138882 C185.75316951 44.65398817 198.09966918 44.63176601 210.44626319 44.62364602 C218.06535826 44.61815641 225.68423738 44.6008155 233.30326597 44.56833413 C239.14466272 44.54469907 244.9859485 44.54217795 250.82739449 44.54756927 C253.22437305 44.5464672 255.62135965 44.53848908 258.01828957 44.5231781 C261.28765226 44.50331547 264.55608638 44.50804796 267.82546997 44.51898193 C268.77683905 44.50733057 269.72820812 44.4956792 270.70840657 44.48367476 C276.32176329 44.53451664 279.5543646 45.23795467 284 49 C287.62833663 52.81930172 288.31000458 55.88279006 288.5 61 C288.31000458 66.11720994 287.62833663 69.18069828 284 73 C278.68445144 77.49819493 274.47183264 77.56241571 267.82546997 77.48101807 C266.29257334 77.48614462 266.29257334 77.48614462 264.7287091 77.49137473 C261.30599556 77.49796087 257.88406702 77.47596452 254.46142578 77.45410156 C252.00737018 77.45297325 249.55331323 77.45360663 247.09925842 77.45587158 C241.81668132 77.45678232 236.53434835 77.44544059 231.25183487 77.42292023 C223.61429624 77.39038118 215.97685312 77.37999128 208.3392527 77.37496826 C195.94714288 77.36621858 183.55513851 77.33961192 171.16308594 77.30175781 C159.12695848 77.26502924 147.0908597 77.23672163 135.0546875 77.21972656 C134.31250194 77.21867567 133.57031638 77.21762477 132.80564035 77.21654204 C129.0822306 77.2113218 125.35882064 77.20626699 121.63541055 77.20129442 C90.75686369 77.15984257 59.87844787 77.08910528 29 77 C28.87533859 77.60255615 28.75067719 78.2051123 28.62223816 78.82592773 C28.36679985 80.02390991 28.36679985 80.02390991 28.10620117 81.24609375 C27.94028976 82.0342749 27.77437836 82.82245605 27.60343933 83.63452148 C26.6582457 87.33967478 25.06455439 90.61665052 23.3125 94 C22.95728271 94.69424072 22.60206543 95.38848145 22.23608398 96.10375977 C19.3669733 101.57150334 16.16831502 106.42285237 12 111 C10.98486328 112.13501953 10.98486328 112.13501953 9.94921875 113.29296875 C-2.92107408 126.94050839 -21.20476448 135.23141634 -39.91015625 136.203125 C-62.13570159 136.62106854 -81.34153489 129.70095455 -97.65625 114.3671875 C-106.61217597 105.32170227 -112.99171601 95.01893128 -116.59643555 82.76953125 C-116.86095016 81.87468018 -117.12546478 80.9798291 -117.397995 80.05786133 C-117.59665665 79.37876709 -117.7953183 78.69967285 -118 78 C-119.18937164 77.99635437 -120.37874329 77.99270874 -121.60415649 77.98895264 C-132.81615361 77.95200181 -144.02787609 77.89422792 -155.23966408 77.81609726 C-161.00370035 77.77659831 -166.7675833 77.74442155 -172.53173828 77.72900391 C-178.0951165 77.71385347 -183.65807325 77.67943604 -189.22126389 77.63169098 C-191.34307567 77.61686063 -193.46494762 77.60895804 -195.58681107 77.60811615 C-198.56044634 77.60574978 -201.53291376 77.5786959 -204.50634766 77.54589844 C-205.82049652 77.55344398 -205.82049652 77.55344398 -207.16119385 77.56114197 C-212.59260452 77.46853711 -215.67887289 76.58892251 -220 73 C-223.62833663 69.18069828 -224.31000458 66.11720994 -224.5 61 C-224.31000458 55.88279006 -223.62833663 52.81930172 -220 49 C-214.82963961 44.70574475 -210.93755361 44.41717502 -204.50634766 44.45410156 C-203.56912872 44.44376389 -202.63190979 44.43342621 -201.66629028 44.42277527 C-198.58203827 44.39338115 -195.49844349 44.39184879 -192.4140625 44.390625 C-190.27028148 44.3756411 -188.126512 44.35891351 -185.98275757 44.34051514 C-180.35051946 44.29685324 -174.71843709 44.27684495 -169.08605957 44.26177979 C-163.33462317 44.24220466 -157.58335485 44.20023503 -151.83203125 44.16015625 C-140.55473935 44.08486656 -129.2774851 44.03456744 -118 44 C-117.52385254 42.49433472 -117.52385254 42.49433472 -117.03808594 40.95825195 C-116.60388101 39.61397698 -116.16928997 38.26982667 -115.734375 36.92578125 C-115.52731934 36.26743286 -115.32026367 35.60908447 -115.10693359 34.93078613 C-109.16303789 16.70097015 -94.90924381 2.25173755 -78.0625 -6.3125 C-71.89341724 -9.3417991 -65.77278811 -11.68246405 -59 -13 C-58.07445312 -13.18175781 -57.14890625 -13.36351562 -56.1953125 -13.55078125 C-36.38255333 -16.3361936 -16.1603094 -11.8805169 0 0 Z M-76.8125 33.75 C-85.35184769 44.08604259 -87.16790211 56.04806107 -86 69 C-83.62558386 80.04442706 -77.16765604 89.48186157 -68 96 C-57.6277217 102.22667025 -46.91313969 104.96334491 -34.87890625 102.3125 C-22.15040639 98.42098412 -12.51787135 90.90134197 -6.125 79.125 C-1.21519588 68.39309707 -1.0196943 57.53279953 -4.625 46.375 C-8.41246936 36.81095865 -15.76218974 28.09883496 -25.03515625 23.4921875 C-43.93686704 15.45379287 -62.34794219 18.56999094 -76.8125 33.75 Z " fill="#fff" transform="translate(224,195)"/>
</svg>
