<svg xmlns="http://www.w3.org/2000/svg" width="512" height="512" viewBox="0 0 512 512" fill="none">
<path d="M0 0 C0.94488785 -0.00705963 1.8897757 -0.01411926 2.86329651 -0.02139282 C41.91562467 -0.247035 41.91562467 -0.247035 58.76953125 3.203125 C59.7661377 3.39648438 60.76274414 3.58984375 61.78955078 3.7890625 C110.19101182 13.35276024 154.38512896 35.77050265 189.76953125 70.203125 C190.77330811 71.16822998 190.77330811 71.16822998 191.79736328 72.15283203 C200.73444332 80.76720099 209.13659789 89.47627109 216.49560547 99.48486328 C217.79203791 101.23348182 219.12241843 102.95141303 220.4609375 104.66796875 C228.32520366 114.8826848 234.71064045 125.84037758 240.76953125 137.203125 C241.43299561 138.44376709 241.43299561 138.44376709 242.10986328 139.70947266 C253.62657967 161.61261762 261.29758965 185.90372389 265.76953125 210.203125 C265.9303418 211.00379395 266.09115234 211.80446289 266.25683594 212.62939453 C271.74897535 240.70724953 271.50349817 274.19290435 265.76953125 302.203125 C265.57617188 303.19973145 265.3828125 304.19633789 265.18359375 305.22314453 C257.06481252 346.31194555 239.6953801 383.40611994 213.76953125 416.203125 C212.95742188 417.24082031 212.1453125 418.27851563 211.30859375 419.34765625 C198.63372356 434.92135321 184.07015514 449.45563789 167.76953125 461.203125 C166.68115764 462.01932333 165.59392981 462.8370516 164.5078125 463.65625 C133.30033827 486.90636708 96.98105174 502.17086575 58.76953125 509.203125 C57.9688623 509.36393555 57.16819336 509.52474609 56.34326172 509.69042969 C28.27626081 515.180446 -5.23231119 514.95256215 -33.23046875 509.203125 C-34.24302734 509.00444824 -35.25558594 508.80577148 -36.29882812 508.60107422 C-69.69196134 501.92344797 -103.47079609 489.30371699 -131.23046875 469.203125 C-131.83955078 468.76242676 -132.44863281 468.32172852 -133.07617188 467.86767578 C-137.85568683 464.39134384 -142.56479159 460.83065303 -147.23046875 457.203125 C-147.77251953 456.78256836 -148.31457031 456.36201172 -148.87304688 455.92871094 C-164.52355784 443.62617007 -179.3496089 429.0006694 -191.02099609 412.85693359 C-192.28432921 411.12947729 -193.59002347 409.44133983 -194.90625 407.75390625 C-217.64947689 378.24416611 -232.04088573 342.26867924 -239.48046875 305.953125 C-239.70706177 304.85786499 -239.70706177 304.85786499 -239.93823242 303.74047852 C-242.97035192 288.0463101 -243.60367945 272.52328636 -243.54296875 256.578125 C-243.5408136 255.55988647 -243.53865845 254.54164795 -243.53643799 253.49255371 C-243.48673484 238.8683366 -243.17254863 224.57507862 -240.23046875 210.203125 C-239.94042969 208.70821533 -239.94042969 208.70821533 -239.64453125 207.18310547 C-232.01587656 168.57481372 -216.30304558 132.42145621 -192.23046875 101.203125 C-191.26560547 99.95015625 -191.26560547 99.95015625 -190.28125 98.671875 C-176.19691174 80.74132256 -159.85363505 63.45372011 -141.23046875 50.203125 C-140.61284668 49.75710937 -139.99522461 49.31109375 -139.35888672 48.8515625 C-99.20602152 19.97940435 -49.95191371 0.24935871 0 0 Z M-147.37280273 97.11108398 C-153.44557214 103.12704047 -159.0306746 109.40896888 -164.23046875 116.203125 C-164.66069336 116.76225586 -165.09091797 117.32138672 -165.53417969 117.89746094 C-172.46326353 126.95100483 -178.61245074 136.28666996 -184.23046875 146.203125 C-184.57174805 146.79528809 -184.91302734 147.38745117 -185.26464844 147.99755859 C-197.9886112 170.18839316 -206.14772233 195.00513591 -210.23046875 220.203125 C-210.40852051 221.27006592 -210.58657227 222.33700684 -210.77001953 223.4362793 C-212.3918592 234.14201544 -212.62951588 244.70510474 -212.60546875 255.515625 C-212.60492493 256.4379895 -212.6043811 257.360354 -212.6038208 258.31066895 C-212.44931188 315.48391218 -190.38409786 368.13702391 -151.98046875 410.140625 C-151.48498535 410.68468994 -150.98950195 411.22875488 -150.47900391 411.78930664 C-147.59446662 414.90136629 -144.61268751 417.6417732 -141.23046875 420.203125 C-141.02292969 419.666875 -140.81539063 419.130625 -140.6015625 418.578125 C-130.99652958 394.14356428 -119.97307193 372.58252155 -101.56884766 353.58837891 C-100.41475299 352.39386356 -99.27970017 351.18100418 -98.1484375 349.96484375 C-84.75548521 335.89519493 -67.5667403 326.51064496 -50.23046875 318.203125 C-51.39607505 314.70630609 -52.3197542 314.14307435 -55.23046875 312.015625 C-75.59738531 296.53934243 -88.35323147 276.18540218 -94.98046875 251.515625 C-95.19147217 250.7316333 -95.40247559 249.9476416 -95.61987305 249.13989258 C-102.88134897 220.78229457 -96.93277322 190.16744065 -82.23046875 165.203125 C-79.45033806 161.00083154 -76.45062616 157.07616656 -73.23046875 153.203125 C-72.52148438 152.34203125 -71.8125 151.4809375 -71.08203125 150.59375 C-52.81103719 129.35454391 -26.24457214 115.54580084 1.76953125 113.203125 C34.55785039 111.51887286 64.01345406 120.33063866 88.76953125 142.328125 C109.35661563 161.26038471 122.48923594 188.34578387 123.87768555 216.38745117 C124.66581881 246.17888837 116.89940703 273.0934324 97.76953125 296.203125 C97.0734375 297.06292969 96.37734375 297.92273438 95.66015625 298.80859375 C90.95278886 304.34919952 85.80665132 308.74755869 79.93457031 312.98095703 C78.51493548 314.01330329 77.13771637 315.10350172 75.76953125 316.203125 C75.76953125 316.863125 75.76953125 317.523125 75.76953125 318.203125 C76.73890625 318.66460937 77.70828125 319.12609375 78.70703125 319.6015625 C94.64088234 327.30151876 108.79196047 336.11776221 121.76953125 348.203125 C122.300625 348.69570801 122.83171875 349.18829102 123.37890625 349.69580078 C143.27305706 368.35272254 158.27204912 392.93572258 165.76953125 419.203125 C168.90868379 419.52640435 168.90868379 419.52640435 171.15234375 417.18359375 C177.41932514 410.80055715 183.24458477 404.25152967 188.76953125 397.203125 C189.55972656 396.22988281 190.34992188 395.25664062 191.1640625 394.25390625 C198.21564201 385.4033411 204.1029838 375.98860579 209.76953125 366.203125 C210.14352051 365.56117188 210.51750977 364.91921875 210.90283203 364.2578125 C227.28334821 335.83568937 237.69253976 300.90555248 238.0078125 268.05078125 C238.01760635 267.2014653 238.02740021 266.35214935 238.03749084 265.47709656 C238.21226359 246.38075421 238.02091429 227.92021091 233.76953125 209.203125 C233.44807129 207.78362549 233.44807129 207.78362549 233.12011719 206.33544922 C221.4982695 156.87915852 193.35151478 110.26186973 152.76953125 79.203125 C152.21040039 78.77290039 151.65126953 78.34267578 151.07519531 77.89941406 C142.02165142 70.97033022 132.68598629 64.82114301 122.76953125 59.203125 C122.17736816 58.8618457 121.58520508 58.52056641 120.97509766 58.16894531 C98.69744555 45.3952024 74.00351744 37.49561598 48.76953125 33.203125 C47.50882812 32.98785156 46.248125 32.77257813 44.94921875 32.55078125 C-25.93665868 21.87895135 -96.50605262 47.64937142 -147.37280273 97.11108398 Z M-48.23046875 170.203125 C-62.59639777 188.25145988 -69.99578037 209.04668774 -68.23046875 232.203125 C-66.21712399 248.8746465 -59.77098707 264.87669324 -48.23046875 277.203125 C-47.40804687 278.11578125 -46.585625 279.0284375 -45.73828125 279.96875 C-32.13121971 294.40406746 -13.18558302 303.9745452 6.76953125 305.203125 C8.0534375 305.28240234 8.0534375 305.28240234 9.36328125 305.36328125 C29.51939108 305.9863868 49.95533904 299.13891808 65.08203125 285.703125 C66.653232 284.21224122 68.21646992 282.71289543 69.76953125 281.203125 C70.40632812 280.62820313 71.043125 280.05328125 71.69921875 279.4609375 C85.55944985 266.58632283 92.88376532 246.63529189 94.1171875 228.0234375 C94.95031527 205.36455454 86.67358224 185.5842601 72.14453125 168.578125 C58.15855491 153.71131144 38.31219883 143.77484009 17.73828125 143 C-7.74321045 142.55295629 -30.75022283 151.37409467 -48.23046875 170.203125 Z M-21.23046875 340.203125 C-21.90319824 340.38504395 -22.57592773 340.56696289 -23.26904297 340.75439453 C-56.80371275 350.11465781 -83.79974416 373.30448374 -100.98046875 403.078125 C-106.99587493 413.85229876 -114.52641327 428.76614824 -114.171875 441.26953125 C-112.68823858 444.31683427 -110.03797213 445.68564803 -107.23046875 447.390625 C-106.60454834 447.77863281 -105.97862793 448.16664063 -105.33374023 448.56640625 C-103.31201559 449.80150346 -101.27569021 451.00737511 -99.23046875 452.203125 C-98.58480957 452.58162598 -97.93915039 452.96012695 -97.27392578 453.35009766 C-47.77192254 481.90846791 13.3172458 489.21058945 68.45825195 475.13427734 C91.64290391 468.86192191 122.36025577 459.61240048 139.76953125 442.203125 C138.90188896 415.10206281 118.58833252 387.00156006 99.9921875 369.1171875 C74.11567233 345.14719638 40.26408706 334.95378288 5.53515625 335.81640625 C-3.65327985 336.22572809 -12.37786016 337.75846318 -21.23046875 340.203125 Z " fill="#fff" transform="translate(243.23046875,-0.203125)"/>
</svg>
