<svg xmlns="http://www.w3.org/2000/svg" width="512" height="512" fill="none" viewBox="0 0 512 512">
<path d="M0 0 C2.94981548 4.16793125 3.62952719 6.87385006 3 12 C1.28782963 15.36092703 -0.06413955 17.40208915 -3.25 19.4375 C-7.75424921 20.3588237 -11.83991268 20.2085666 -15.87109375 17.953125 C-16.49113281 17.53546875 -17.11117188 17.1178125 -17.75 16.6875 C-28.7074232 9.33280933 -42.19379165 7.69373653 -55 10 C-64.99143549 12.45561774 -73.7677621 16.60252644 -81 24 C-81.66 24 -82.32 24 -83 24 C-83.40605469 24.86238281 -83.40605469 24.86238281 -83.8203125 25.7421875 C-85.01465189 28.02804236 -86.37989305 30.02565294 -87.875 32.125 C-95.76037694 43.91460015 -98.28040567 57.03251524 -96 71 C-93.06020384 85.33150628 -84.93109722 97.30215675 -72.8203125 105.39453125 C-60.16435487 112.59896143 -46.28546162 115.0257364 -32 111.9375 C-17.66979272 107.86749397 -6.57723023 99.61199188 0.71875 86.62109375 C4.4067015 79.07653443 7.26040533 71.38313147 6.95703125 62.91015625 C6.93576172 61.96076172 6.91449219 61.01136719 6.89257812 60.03320312 C6.83928847 58.05628682 6.77422407 56.07965207 6.69726562 54.10351562 C6.58684332 48.071186 6.82525243 44.51165702 11 40 C13.56995721 38.46862344 16.02014021 38.07227272 19 38 C23.58768235 39.35374233 26.66985041 40.72805908 29 45 C34.29166444 62.23803303 29.2494851 82.68238135 21.41601562 98.21264648 C17.64974596 105.15136608 12.66220277 110.5629511 7 116 C5.98099609 117.01320312 5.98099609 117.01320312 4.94140625 118.046875 C-10.41781129 132.48006903 -29.75499528 136.54976214 -50.12109375 136.26953125 C-70.02172287 135.62532335 -88.04331501 125.48703942 -101.625 111.375 C-115.79883303 94.94737727 -121.45510472 74.46625909 -120 53 C-119.21681223 46.89816917 -117.94570629 40.83711886 -116 35 C-117.36555055 34.99365209 -117.36555055 34.99365209 -118.75868797 34.98717594 C-140.88254787 34.88399173 -163.00637521 34.77537252 -185.13017845 34.66066074 C-195.8289619 34.60531949 -206.52774868 34.55183602 -217.2265625 34.50268555 C-226.54872588 34.45985475 -235.87086461 34.41357958 -245.19298995 34.36312145 C-250.13160596 34.3365116 -255.07021706 34.31165831 -260.00886154 34.29092598 C-264.65284701 34.27137629 -269.29678553 34.24723756 -273.94072914 34.21950912 C-275.64919115 34.21012983 -277.35766348 34.20245773 -279.06614113 34.19658089 C-281.39077479 34.18833459 -283.71529405 34.17406217 -286.03988647 34.15821838 C-287.34330175 34.15176583 -288.64671703 34.14531328 -289.98962975 34.1386652 C-293 34 -293 34 -295 33 C-295 124.74 -295 216.48 -295 311 C-219.86087277 310.80196296 -219.86087277 310.80196296 -144.72192383 310.54956055 C-130.20837402 310.52697754 -130.20837402 310.52697754 -123.41972351 310.52278137 C-118.66565855 310.5181122 -113.91187112 310.49933203 -109.15788269 310.47212219 C-103.0990627 310.43790184 -97.04064802 310.42753006 -90.98174036 310.43463862 C-88.75489931 310.43315155 -86.52804452 310.42319191 -84.30128634 310.40392435 C-81.29867328 310.37914467 -78.29764573 310.38501382 -75.29499817 310.39872742 C-74.41878657 310.38416409 -73.54257498 310.36960077 -72.63981152 310.35459614 C-68.23062161 310.40892269 -66.54194698 310.56683209 -62.98156261 313.41257954 C-60.2157901 317.02398013 -59.87086168 318.78370933 -59.7890625 323.26953125 C-59.76070313 324.32333984 -59.73234375 325.37714844 -59.703125 326.46289062 C-59.65131879 328.68408183 -59.60696648 330.90546022 -59.5703125 333.12695312 C-59.52390625 334.7134668 -59.52390625 334.7134668 -59.4765625 336.33203125 C-59.45674316 337.29858643 -59.43692383 338.2651416 -59.41650391 339.26098633 C-58.93430327 342.43203494 -57.72807723 344.3309787 -56 347 C-56 347.66 -56 348.32 -56 349 C-55.21625 349.309375 -54.4325 349.61875 -53.625 349.9375 C-51 351 -51 351 -49 352 C-43.9888842 352.54978069 -40.10303507 352.56154513 -35.5625 350.25 C-31.18609605 346.41465072 -31.18609605 346.41465072 -29.62641239 340.96331978 C-29.6269987 339.76540747 -29.62758501 338.56749516 -29.62818909 337.33328247 C-29.62436452 336.66439558 -29.62053996 335.99550869 -29.6165995 335.3063525 C-29.60731754 333.0661643 -29.61930347 330.82659466 -29.63110352 328.58642578 C-29.62863548 326.97982527 -29.62479704 325.37322637 -29.61968994 323.76663208 C-29.61135032 320.30714687 -29.6121609 316.84782625 -29.61987495 313.38834 C-29.6314528 307.91709012 -29.61929947 302.4460522 -29.60325623 296.974823 C-29.5670524 283.38422932 -29.56083191 269.79364044 -29.56335449 256.20300293 C-29.56506552 245.64301293 -29.55794758 235.08319586 -29.52337593 224.52325428 C-29.50657906 219.08555609 -29.5083792 213.64827949 -29.52419865 208.21058297 C-29.52999698 204.82541321 -29.51925293 201.4404432 -29.50395203 198.0553093 C-29.50022676 196.48719631 -29.50333114 194.91904973 -29.51382256 193.35096741 C-29.52720927 191.20703574 -29.51597266 189.06455848 -29.49879456 186.92068481 C-29.49910848 185.12268527 -29.49910848 185.12268527 -29.49942875 183.2883625 C-28.89192128 179.28838294 -27.51288505 177.13766913 -25 174 C-21.29825261 171.5321684 -18.29506525 171.31927268 -14 172 C-8.5 175 -8.5 175 -7 178 C-6.89258013 180.21523708 -6.85162468 182.43377465 -6.83937073 184.65158081 C-6.831739 185.68887508 -6.831739 185.68887508 -6.82395309 186.74712479 C-6.80819446 189.07604339 -6.79969436 191.40493088 -6.79125977 193.73388672 C-6.78172353 195.39942117 -6.77183247 197.06495362 -6.76161194 198.73048401 C-6.73018227 204.21352781 -6.7099464 209.69658694 -6.69140625 215.1796875 C-6.68810893 216.11303248 -6.68481161 217.04637746 -6.68141437 218.00800562 C-6.65061704 226.81512681 -6.6239137 235.62225141 -6.60699558 244.42941093 C-6.58512111 255.68459415 -6.54323257 266.93929831 -6.47355801 278.19429004 C-6.42621475 286.11207171 -6.40204775 294.02972467 -6.3947987 301.9476434 C-6.38985545 306.67328261 -6.374903 311.39838241 -6.3350544 316.12386703 C-6.29799484 320.57769977 -6.28984109 325.03068944 -6.30306053 329.48464775 C-6.30300689 331.11155138 -6.29283712 332.73849417 -6.2713089 334.36525536 C-6.12256848 346.24893086 -8.13541956 355.58985033 -16.125 364.875 C-22.31364635 370.53636258 -31.33131198 375.11401094 -39.77095699 375.13701439 C-41.25274265 375.1446262 -41.25274265 375.1446262 -42.76446337 375.15239179 C-43.85256872 375.15288955 -44.94067407 375.15338731 -46.06175232 375.15390015 C-47.21557767 375.1582824 -48.36940303 375.16266465 -49.55819279 375.1671797 C-52.76629859 375.17824851 -55.97437686 375.18479349 -59.18249738 375.18936086 C-62.64079422 375.19531752 -66.09907308 375.20692746 -69.55735779 375.21765137 C-77.91366576 375.24217781 -86.26997969 375.25680489 -94.62631258 375.26971143 C-96.98740233 375.27342383 -99.3484915 375.27739705 -101.70958066 375.2814641 C-116.37693238 375.30670614 -131.04428505 375.32875569 -145.71165371 375.34119225 C-149.10944561 375.34412188 -152.50723747 375.34708354 -155.9050293 375.35009766 C-156.74951966 375.35084371 -157.59401003 375.35158976 -158.46409101 375.35235842 C-172.13256072 375.36500156 -185.80090004 375.39820996 -199.46930885 375.43989949 C-213.50873669 375.48236872 -227.5480979 375.50589322 -241.5875898 375.51111281 C-249.46757984 375.51452178 -257.34736631 375.52621564 -265.22729301 375.55921555 C-271.94117366 375.58728622 -278.65480901 375.59818491 -285.36874377 375.58702008 C-288.79112267 375.58185077 -292.21298847 375.58460577 -295.63529205 375.60948563 C-299.35575049 375.63222213 -303.07492871 375.62385913 -306.7953949 375.60800171 C-308.39743819 375.62882484 -308.39743819 375.62882484 -310.03184599 375.65006864 C-322.13173929 375.52358197 -331.91812264 370.53838445 -340.6796875 362.44921875 C-348.80013145 353.98537294 -349.6283132 343.32758143 -349.4375 332.125 C-349.44458984 330.92875 -349.45167969 329.7325 -349.45898438 328.5 C-349.4093355 321.67136993 -348.94338325 317.8914777 -344.77000427 312.37380981 C-342.19436791 310.3746991 -340.24555757 310.65982111 -337.01953125 310.70703125 C-335.85615234 310.71669922 -334.69277344 310.72636719 -333.49414062 310.73632812 C-332.27919922 310.76146484 -331.06425781 310.78660156 -329.8125 310.8125 C-328.58595703 310.82603516 -327.35941406 310.83957031 -326.09570312 310.85351562 C-323.06336336 310.88891259 -320.03190004 310.9382924 -317 311 C-317.00151888 310.3936385 -317.00303776 309.787277 -317.00460267 309.16254091 C-317.09412207 273.22172657 -317.16274981 237.28093143 -317.20426132 201.34002879 C-317.20926412 197.02421172 -317.21444141 192.70839486 -317.21972656 188.39257812 C-317.2207758 187.53337955 -317.22182505 186.67418098 -317.22290608 185.78894609 C-317.24030959 171.87835056 -317.27184698 157.96782117 -317.30861118 144.05726486 C-317.34602213 129.78291372 -317.36823618 115.50859721 -317.37635398 101.23419905 C-317.38184144 92.42666611 -317.3991708 83.61932015 -317.43166587 74.81184477 C-317.45281565 68.77157947 -317.459199 62.73141078 -317.45400551 56.69111115 C-317.45144443 53.20653332 -317.45536018 49.72228214 -317.4768219 46.23776245 C-317.49670981 42.45679062 -317.49194232 38.67662009 -317.48101807 34.89562988 C-317.49266943 33.79833951 -317.5043208 32.70104913 -317.51632524 31.57050753 C-317.46792323 25.37669537 -317.12971806 19.90029931 -313 15 C-307.89090808 11.00782253 -302.61788064 10.42909646 -296.32698059 10.55262756 C-295.49062834 10.55273769 -294.65427609 10.55284782 -293.79257983 10.55296129 C-291.00947686 10.55805268 -288.22747409 10.5916941 -285.44458008 10.62524414 C-283.44169355 10.63456435 -281.43879772 10.64203916 -279.43589783 10.64781189 C-275.13278515 10.66381235 -270.82999366 10.69213756 -266.52701759 10.72990608 C-259.72423926 10.78885325 -252.92156015 10.81606579 -246.11857605 10.83824158 C-229.22675854 10.89824757 -212.33522432 11.00041508 -195.44366455 11.11016846 C-182.30507033 11.19504507 -169.16662233 11.26852926 -156.02780265 11.30776113 C-149.26329115 11.32926445 -142.49947414 11.37441877 -135.73522723 11.43736851 C-131.5318471 11.47144095 -127.32858929 11.48478562 -123.12508583 11.49236488 C-121.17431713 11.50013769 -119.22356109 11.51655452 -117.2729454 11.54219437 C-114.61215199 11.5759808 -111.95303173 11.57899496 -109.29206848 11.57435608 C-108.51833619 11.59164877 -107.74460391 11.60894145 -106.94742519 11.62675816 C-102.92899011 11.58470898 -101.22739589 11.18996032 -98.09966564 8.57713985 C-97.40677598 7.7266837 -96.71388632 6.87622755 -96 6 C-70.97374235 -17.98997369 -27.95883465 -22.06997194 0 0 Z M-327 333 C-327.45931663 341.87025227 -327.45931663 341.87025227 -323 348 C-316.78935063 352.4575442 -311.57439699 353.72546312 -304.03416443 353.60127258 C-302.58930281 353.60768077 -302.58930281 353.60768077 -301.11525208 353.61421841 C-297.90895251 353.62241082 -294.70398042 353.5950248 -291.49780273 353.56762695 C-289.19108613 353.56621568 -286.88436728 353.56701001 -284.57765198 353.56983948 C-278.3302525 353.5712719 -272.08333466 353.54190936 -265.83604693 353.50696969 C-259.30177942 353.47567777 -252.76750043 353.47277319 -246.23316956 353.46684265 C-235.27051461 353.45390893 -224.30802805 353.42186187 -213.34545898 353.37719727 C-202.05738197 353.33125446 -190.76935289 353.29588574 -179.48120117 353.2746582 C-178.43631249 353.27268778 -178.43631249 353.27268778 -177.37031495 353.27067754 C-173.87547829 353.26415204 -170.38064128 353.25783357 -166.88580406 353.25161803 C-137.92374946 353.19984165 -108.96188734 353.11044348 -80 353 C-80.66 346.4 -81.32 339.8 -82 333 C-162.85 333 -243.7 333 -327 333 Z " fill="#fff" transform="translate(423,73)"/>
<path d="M0 0 C1.02655001 -0.00679667 1.02655001 -0.00679667 2.07383841 -0.01373065 C4.37226642 -0.02641387 6.67045866 -0.02475177 8.96891785 -0.02310181 C10.61477972 -0.02908468 12.26063879 -0.03588967 13.90649414 -0.04345703 C18.3817982 -0.06115039 22.85702581 -0.06581386 27.33236146 -0.0670886 C31.06740303 -0.06898637 34.80242675 -0.07634263 38.53746146 -0.08343279 C47.35023475 -0.0997276 56.16296716 -0.10460081 64.97575378 -0.10317993 C74.06723208 -0.10197871 83.1584729 -0.12307412 92.2498911 -0.15466726 C100.0538138 -0.18082014 107.8576589 -0.19154762 115.66162509 -0.19026911 C120.32319554 -0.18975912 124.9845551 -0.19546274 129.64608192 -0.21662521 C134.03167826 -0.23599059 138.41686218 -0.23614383 142.80247307 -0.22159195 C144.41090624 -0.21950051 146.0193651 -0.22422471 147.62775421 -0.23631287 C149.82645761 -0.2517654 152.02373902 -0.24245906 154.22241211 -0.22705078 C156.06660594 -0.22868508 156.06660594 -0.22868508 157.94805622 -0.2303524 C161.9677353 0.36628777 164.15034329 1.74868991 167.30168152 4.26742554 C169.15894768 7.98195785 168.88669241 12.22321979 168.30168152 16.26742554 C166.11145234 19.09166842 164.47150945 20.68251157 161.30168152 22.26742554 C159.1086231 22.3704964 156.91235437 22.40697211 154.71688843 22.41459656 C154.03267061 22.41827325 153.34845279 22.42194993 152.6435011 22.42573804 C150.33969372 22.43679369 148.03593141 22.44062187 145.73210144 22.44442749 C144.08476619 22.45069069 142.43743237 22.45733736 140.7901001 22.46434021 C136.30655965 22.48176251 131.82302987 22.49230519 127.33946395 22.50054574 C124.5396549 22.50569299 121.73984919 22.51176883 118.9400425 22.51805687 C110.18402573 22.53711186 101.42801742 22.55134268 92.6719839 22.55966884 C82.55721459 22.56944525 72.44266389 22.59577399 62.32797164 22.63616973 C54.51475244 22.66630553 46.70159599 22.68113527 38.88831979 22.68444985 C34.21948674 22.68680313 29.55088714 22.69579947 24.88211632 22.72091103 C20.48998866 22.74415269 16.09824882 22.74844084 11.70607567 22.73814964 C10.09399121 22.73765323 8.48188792 22.74400482 6.8698616 22.75770569 C4.66858292 22.77536796 2.46870462 22.76834806 0.26742554 22.75517273 C-1.58009922 22.75875526 -1.58009922 22.75875526 -3.4649477 22.76241016 C-7.30946924 22.17386676 -8.93897247 20.94968709 -11.69831848 18.26742554 C-13.98685842 14.99808276 -14.16994066 12.19761034 -13.69831848 8.26742554 C-10.05430292 1.73332867 -7.3881006 0.02015955 0 0 Z " fill="#fff" transform="translate(183.6983184814453,276.7325744628906)"/>
<path d="M0 0 C0.6949482 -0.00709439 1.38989639 -0.01418877 2.10590363 -0.02149814 C4.42859128 -0.03906454 6.74960235 -0.02098261 9.07226562 -0.00291443 C10.73975384 -0.00805382 12.40723662 -0.01533526 14.07470703 -0.02459717 C18.59960024 -0.043117 23.12390447 -0.03016908 27.64877319 -0.01050687 C32.38434538 0.0058762 37.11988016 -0.00293279 41.85546875 -0.00802612 C49.80803843 -0.01254746 57.76037294 0.00332526 65.71289062 0.03126526 C74.90670941 0.06331736 84.10010404 0.06330157 93.29395294 0.04605049 C102.13864968 0.03018594 110.98319092 0.0369185 119.82788086 0.0539875 C123.5917576 0.06085957 127.35550977 0.05982396 131.11938477 0.05244255 C135.5518444 0.04478059 139.9838214 0.05690272 144.41619873 0.08429146 C146.04277107 0.09117734 147.66938847 0.09127105 149.29595947 0.08407593 C151.51685505 0.07538395 153.73626026 0.09133031 155.95703125 0.11352539 C157.19956665 0.11633231 158.44210205 0.11913923 159.72229004 0.12203121 C163.57615683 0.7210883 165.22787358 1.91747109 167.97851562 4.62818909 C169.83706844 8.34529472 169.55760002 12.5809619 168.97851562 16.62818909 C166.45175524 19.97443933 164.93918021 21.30796756 160.97851562 22.62818909 C158.77279685 22.72872128 156.56411981 22.76758493 154.35612488 22.77536011 C153.67992531 22.7790368 153.00372573 22.78271348 152.30703527 22.78650159 C150.03630687 22.79753365 147.76562423 22.80138142 145.49487305 22.80519104 C143.86871699 22.81145599 142.24256236 22.81810282 140.6164093 22.82510376 C135.2722778 22.84614053 129.92814601 22.85650489 124.58398438 22.86647034 C122.74442339 22.87051785 120.90486257 22.87463477 119.0653019 22.87882042 C110.42408276 22.89787021 101.78287217 22.91210243 93.14163607 22.92043239 C83.16498668 22.93020839 73.18855895 22.95653824 63.21198767 22.99693328 C55.5014919 23.02708245 47.79105972 23.04190007 40.08050615 23.0452134 C35.47481187 23.04756502 30.86935445 23.05654007 26.26372337 23.08167458 C21.9306737 23.10493978 17.59801711 23.10919488 13.26492119 23.09891319 C11.67583154 23.09841736 10.08672263 23.1047518 8.49769211 23.11846924 C6.32527648 23.13617152 4.15427421 23.12909199 1.9818573 23.11593628 C0.1597865 23.11951881 0.1597865 23.11951881 -1.69909382 23.12317371 C-5.70044223 22.5270349 -7.87136895 21.11739081 -11.02148438 18.62818909 C-13.02691403 15.75923164 -13.28788703 13.6411769 -12.95898438 10.19068909 C-12.90613281 9.44947815 -12.85328125 8.70826721 -12.79882812 7.94459534 C-10.65334194 1.55126213 -6.27225316 0.00295966 0 0 Z " fill="#fff" transform="translate(183.021484375,319.37181091308594)"/>
<path d="M0 0 C0.67775956 -0.00382555 1.35551912 -0.00765109 2.05381685 -0.01159257 C4.32384447 -0.02190763 6.59361845 -0.01793333 8.86366272 -0.01396179 C10.4915897 -0.01830909 12.11951464 -0.0234923 13.74743652 -0.02944946 C18.168905 -0.04284862 22.59028805 -0.04341713 27.01177287 -0.04088616 C30.70222175 -0.0398171 34.3926533 -0.04469816 38.08309847 -0.04949158 C46.78893774 -0.06058989 55.49473386 -0.06102232 64.20057678 -0.05497742 C73.18356264 -0.04893602 82.16639192 -0.0612521 91.14935106 -0.08254749 C98.86070885 -0.10015657 106.57201676 -0.10616595 114.28339392 -0.10290974 C118.88954363 -0.10109567 123.49558166 -0.1037454 128.10171318 -0.11762428 C132.43309853 -0.1301868 136.76423958 -0.12827354 141.09562111 -0.11521339 C142.68511919 -0.11284463 144.27463438 -0.11559302 145.86411285 -0.12383652 C148.03444874 -0.13428073 150.20396137 -0.12622292 152.37426758 -0.11352539 C154.19577284 -0.113777 154.19577284 -0.113777 156.05407619 -0.1140337 C160.28085692 0.38146998 162.74051965 2.09094256 166.03578186 4.64350891 C168.16454129 7.47729156 167.70868248 10.39456706 167.61390686 13.81147766 C167.10905575 17.21515125 165.76381053 18.9692631 163.25062561 21.26069641 C160.35264012 22.70968916 157.82882886 22.40010347 154.58990479 22.41459656 C153.89751986 22.41897881 153.20513494 22.42336107 152.49176866 22.42787611 C150.160327 22.44128294 147.82892316 22.44744716 145.49745178 22.4535675 C143.83041207 22.46146694 142.16337407 22.46973579 140.49633789 22.47834778 C135.0121067 22.5045845 129.52786781 22.51987625 124.04359436 22.53413391 C122.15727038 22.53949276 120.27094645 22.54487027 118.38462257 22.55026627 C110.53964875 22.57189669 102.694677 22.59063448 94.8496809 22.60188866 C83.59804029 22.61813487 72.34674464 22.651327 61.0952341 22.7082895 C53.18859923 22.7469567 45.28205675 22.76651748 37.37532979 22.77180922 C32.6505473 22.77546689 27.92613259 22.78753206 23.20145226 22.81991196 C18.75673849 22.84993635 14.31261612 22.85632473 9.86782265 22.8445282 C8.23637821 22.84430699 6.60490678 22.85265079 4.97355652 22.87018204 C2.74575545 22.89282013 0.5201087 22.88460676 -1.70770264 22.86869812 C-2.95413449 22.87200827 -4.20056635 22.87531841 -5.48476887 22.87872887 C-9.6459549 22.09096201 -11.11729215 20.50257456 -13.74937439 17.26069641 C-14.88719038 14.24574622 -15.04259252 11.46354063 -14.74937439 8.26069641 C-11.24999248 1.13232586 -7.60924982 0.01286764 0 0 Z " fill="#fff" transform="translate(184.74937438964844,233.7393035888672)"/>
<path d="M0 0 C1.13386642 -0.0087616 2.26773285 -0.01752319 3.43595886 -0.02655029 C7.18360674 -0.04855496 10.93007452 -0.03398617 14.67773438 -0.01708984 C17.28178128 -0.02045763 19.88582665 -0.02530993 22.48986816 -0.03158569 C27.94731428 -0.04067468 33.40442175 -0.02871455 38.86181641 -0.00488281 C45.16560648 0.02232766 51.46858794 0.01351291 57.77235842 -0.01401484 C63.84384643 -0.03946401 69.91497678 -0.03673859 75.98649597 -0.02210617 C78.56691094 -0.01876895 81.14734652 -0.02287025 83.72773743 -0.03450394 C87.33337189 -0.04719212 90.9374503 -0.02786051 94.54296875 0 C95.61117355 -0.01012115 96.67937836 -0.02024231 97.779953 -0.03067017 C105.02568629 0.07313849 105.02568629 0.07313849 108.9107666 3.06240845 C111.87436471 7.17888957 112.19783654 9.53074668 111.77148438 14.64697266 C109.64962935 18.6633411 107.99304647 20.98434019 103.77148438 22.64697266 C101.53129005 22.90424156 101.53129005 22.90424156 99.04092407 22.91439819 C98.09329697 22.92292816 97.14566986 22.93145813 96.16932678 22.94024658 C95.1365007 22.93934021 94.10367462 22.93843384 93.03955078 22.9375 C91.39990105 22.94757584 91.39990105 22.94757584 89.72712708 22.95785522 C86.10905426 22.97687277 82.49116657 22.98076132 78.87304688 22.98291016 C76.35964888 22.98933534 73.84625164 22.99606348 71.33285522 23.00308228 C66.06206053 23.01506435 60.79131286 23.01884773 55.52050781 23.01757812 C49.4355807 23.01637696 43.35100843 23.03747517 37.2661711 23.06906545 C31.40460957 23.09840802 25.54318809 23.10555319 19.68156052 23.10435867 C17.19127325 23.10671964 14.70098339 23.1155709 12.21074295 23.13102341 C8.72759793 23.15061344 5.24536669 23.14487198 1.76220703 23.1328125 C0.73342941 23.14405151 -0.29534821 23.15529053 -1.3553009 23.16687012 C-7.29372125 23.11461059 -10.69988597 22.59739113 -15.22851562 18.64697266 C-17.23394528 15.77801521 -17.49491828 13.65996047 -17.16601562 10.20947266 C-17.11316406 9.46826172 -17.0603125 8.72705078 -17.00585938 7.96337891 C-14.17761805 -0.46449599 -7.55175167 -0.07155224 0 0 Z " fill="#fff" transform="translate(187.228515625,191.35302734375)"/>
<path d="M0 0 C0.89948868 -0.00511093 1.79897736 -0.01022186 2.72572327 -0.01548767 C5.70474874 -0.02940887 8.68354348 -0.02842484 11.66259766 -0.02612305 C13.73141567 -0.03000892 15.80023289 -0.03434336 17.86904907 -0.03910828 C22.20846134 -0.04657617 26.54779227 -0.04627532 30.88720703 -0.04101562 C36.44805316 -0.03522382 42.00856591 -0.05214237 47.56935692 -0.0753603 C51.84331204 -0.09009381 56.11718685 -0.09096979 60.39116287 -0.08785057 C62.4412769 -0.08836409 64.49139539 -0.09360759 66.54148483 -0.10366249 C69.40938701 -0.11600041 72.27663946 -0.1092507 75.14453125 -0.09765625 C75.99146042 -0.10529999 76.83838959 -0.11294373 77.71098328 -0.12081909 C82.35201057 -0.07935238 85.45994099 0.22314478 89.20166016 3.2746582 C91.61504791 7.24507031 92.56449015 10.01716506 91.57666016 14.5246582 C89.73274364 19.55352144 89.73274364 19.55352144 87.20166016 21.2746582 C83.2673695 22.58608842 79.50558851 22.43869788 75.40332031 22.45166016 C74.50383163 22.45823135 73.60434296 22.46480255 72.67759705 22.47157288 C69.69863808 22.49129678 66.71972946 22.50296519 63.74072266 22.51293945 C62.72368633 22.51701498 61.70665001 22.52109051 60.6587944 22.52528954 C55.27790276 22.54614433 49.89703659 22.56044979 44.51611328 22.56982422 C38.95521661 22.58089988 33.39471885 22.61531494 27.83396339 22.65499592 C23.56002042 22.68111959 19.28617323 22.68951218 15.01215744 22.6931057 C12.96202265 22.69798102 10.9118924 22.70962181 8.86183548 22.72814369 C5.99382967 22.7524492 3.12686598 22.75158603 0.25878906 22.74462891 C-1.01160469 22.76384399 -1.01160469 22.76384399 -2.30766296 22.78344727 C-6.33948333 22.74778575 -8.30526048 22.59062565 -11.78237915 20.36247253 C-14.66845112 17.37353409 -15.63521733 15.52526413 -16.17333984 11.3996582 C-15.69695483 7.42978307 -14.26793558 5.37929285 -11.79833984 2.2746582 C-7.87732861 -0.33934929 -4.54961353 -0.01324511 0 0 Z " fill="#fff" transform="translate(185.79833984375,148.725341796875)"/>
<path d="M0 0 C2.93423195 1.79646854 4.47205355 2.9441071 6 6 C6.73153975 10.6087004 7.01809761 13.41353833 4.45581055 17.40625 C-1.69160874 24.7062664 -8.22493435 31.53338447 -14.99487305 38.25561523 C-16.8342928 40.08416401 -18.66258504 41.92336602 -20.49023438 43.76367188 C-21.66602476 44.93814298 -22.84243415 46.11199479 -24.01953125 47.28515625 C-24.56124466 47.83091812 -25.10295807 48.37667999 -25.66108704 48.9389801 C-29.25615151 52.48970959 -31.8400676 54.71826969 -36.875 55.375 C-43.85993687 54.53680758 -48.01028126 49.11602228 -52.69140625 44.30859375 C-54.82375358 42.17624642 -57.01704733 40.20348579 -59.3125 38.25 C-64.04924509 34.18319296 -67.73690573 30.63094269 -68.375 24.25 C-68.30593059 20.80280877 -67.86020508 19.75197676 -66.0625 16.5625 C-62.10295601 13.24941217 -59.09449262 12.62609229 -54 13 C-49.39013885 14.68653457 -46.33675516 18.61524694 -43.0625 22.16015625 C-40.81676607 24.163453 -38.83542109 25.04993703 -36 26 C-26.69802826 16.94359746 -26.69802826 16.94359746 -17.9375 7.375 C-12.43439077 1.0273542 -8.60465507 -1.44117376 0 0 Z " fill="#fff" transform="translate(414,107)"/>
</svg>
