<?xml version="1.0" encoding="UTF-8" standalone="no"?>
<svg
   width="41.919998"
   height="41.919998"
   viewBox="0 0 41.919999 41.919999"
   fill="none"
   version="1.1"
   id="svg36"
   sodipodi:docname="logo.svg"
   inkscape:version="1.2.2 (b0a8486541, 2022-12-01)"
   xmlns:inkscape="http://www.inkscape.org/namespaces/inkscape"
   xmlns:sodipodi="http://sodipodi.sourceforge.net/DTD/sodipodi-0.dtd"
   xmlns="http://www.w3.org/2000/svg"
   xmlns:svg="http://www.w3.org/2000/svg">
  <defs
     id="defs40" />
  <sodipodi:namedview
     id="namedview38"
     pagecolor="#ffffff"
     bordercolor="#000000"
     borderopacity="0.25"
     inkscape:showpageshadow="2"
     inkscape:pageopacity="0.0"
     inkscape:pagecheckerboard="0"
     inkscape:deskcolor="#d1d1d1"
     showgrid="false"
     inkscape:zoom="13.691682"
     inkscape:cx="38.344448"
     inkscape:cy="21.144224"
     inkscape:window-width="1920"
     inkscape:window-height="1056"
     inkscape:window-x="0"
     inkscape:window-y="24"
     inkscape:window-maximized="1"
     inkscape:current-layer="svg36" />
  <path
     d="M 33.6552,0 H 8.22548 C 3.68267,0 0,3.69317 0,8.24892 V 33.7511 C 0,38.3068 3.68267,42 8.22548,42 H 33.6552 c 4.5428,0 8.2255,-3.6932 8.2255,-8.2489 V 8.24892 C 41.8807,3.69317 38.198,0 33.6552,0 Z"
     fill="#662d91"
     id="path2" />
  <path
     d="m 20.7675,33.7846 c 7.1057,0 12.8661,-5.7768 12.8661,-12.9028 0,-7.126 -5.7604,-12.9028 -12.8661,-12.9028 -7.1058,0 -12.86613,5.7768 -12.86613,12.9028 0,7.126 5.76033,12.9028 12.86613,12.9028 z"
     fill="#0066ff"
     id="path4" />
  <path
     d="m 20.9402,35.4863 c -8.0984,0 -14.68727,-6.6076 -14.68727,-14.7291 0,-8.1215 6.58887,-14.72912 14.68727,-14.72912 8.0984,0 14.6873,6.60762 14.6873,14.72912 0,8.1215 -6.5889,14.7291 -14.6873,14.7291 z m 0,-26.12711 c -6.2682,0 -11.36562,5.11201 -11.36562,11.39801 0,6.286 5.09742,11.398 11.36562,11.398 6.2682,0 11.3656,-5.112 11.3656,-11.398 0,-6.286 -5.0974,-11.39801 -11.3656,-11.39801 z"
     fill="#ffffff"
     id="path6" />
  <path
     d="M 36.9801,22.6382 H 4.90106 c -0.91663,0 -1.66083,-0.7463 -1.66083,-1.6655 0,-0.9193 0.7442,-1.6656 1.66083,-1.6656 H 36.9801 c 0.9167,0 1.6609,0.7463 1.6609,1.6656 0,0.9192 -0.7442,1.6655 -1.6609,1.6655 z"
     fill="#ffffff"
     id="path8" />
  <path
     d="m 49.8839,16.6904 h 1.1859 l -0.0303,1.8871 h 0.0151 c 0.2965,-1.2196 1.3341,-2.0084 2.9193,-2.0084 2.1358,0 3.4397,1.4259 3.4397,3.6739 0,2.3785 -1.319,3.9106 -3.4699,3.9106 -1.558,0 -2.5956,-0.7433 -2.9072,-1.7384 h -0.0151 c 0.0151,0.4915 0.0453,1.2651 0.0453,1.6049 v 2.958 H 49.8809 V 16.6904 Z m 6.3468,3.5678 c 0,-1.5897 -0.9348,-2.6182 -2.4746,-2.6182 -1.5398,0 -2.6531,1.0558 -2.6833,2.7062 v 0.4459 c 0,1.3986 1.0527,2.2906 2.7136,2.2906 1.4974,0 2.4474,-1.1013 2.4474,-2.8245 z"
     fill="#0066ff"
     id="path10" />
  <path
     d="m 58.17,16.6906 h 1.1859 l -0.0303,2.1267 h 0.0152 c 0.3418,-1.2803 1.0981,-2.245 2.6682,-2.245 1.57,0 2.52,1.1012 2.52,2.8699 0,0.5067 -0.0454,1.0406 -0.0757,1.3076 h -1.083 c 0.0303,-0.2245 0.0605,-0.5946 0.0605,-1.0557 0,-1.3531 -0.5052,-2.0509 -1.7062,-2.0509 -1.4975,0 -2.3717,1.3076 -2.3717,3.137 v 3.2552 H 58.167 v -7.3448 z"
     fill="#0066ff"
     id="path12" />
  <path
     d="m 65.3975,16.6511 h 1.2282 v 7.3843 h -1.2282 z"
     fill="#0066ff"
     id="path14" />
  <path
     d="m 67.0703,16.6907 h 1.3946 l 2.6229,6.2011 h 0.0453 l 2.638,-6.2011 h 1.2736 l -3.2763,7.3448 h -1.4218 z"
     fill="#0066ff"
     id="path16" />
  <path
     d="m 74.9933,21.9239 c 0,-1.0406 0.726,-1.9325 2.6833,-1.9325 h 2.9798 v -0.534 c 0,-1.2651 -0.7412,-1.8749 -2.2386,-1.8749 -1.3493,0 -2.0904,0.5067 -2.0904,1.5018 0,0.0455 0,0.1486 0.0151,0.2669 h -1.0982 c -0.0151,-0.1031 -0.0302,-0.3125 -0.0302,-0.4459 0,-1.4563 1.2464,-2.333 3.2309,-2.333 2.1509,0 3.3943,1.0709 3.3943,2.9883 v 4.4748 h -1.1859 c 0.0151,-0.3428 0.0454,-1.0254 0.0605,-1.7383 h -0.0151 c -0.2511,1.1285 -1.1708,1.8597 -2.995,1.8597 -1.6608,0 -2.7136,-0.8465 -2.7136,-2.2299 z m 5.6631,-0.9678 V 20.853 h -2.8769 c -1.201,0 -1.676,0.358 -1.676,1.0709 0,0.7129 0.6807,1.2196 1.8393,1.2196 1.6608,0 2.7136,-0.8464 2.7136,-2.1844 z"
     fill="#0066ff"
     id="path18" />
  <path
     d="m 83.4056,21.3414 v -3.6133 h -1.2161 v -1.0406 h 0.9771 c 0.2359,0 0.3267,-0.1183 0.357,-0.5066 l 0.0605,-1.1589 h 1.0074 v 1.6655 h 2.653 v 1.0406 h -2.653 v 3.5374 c 0,1.1165 0.3569,1.7839 1.452,1.7839 0.5052,0 0.9772,-0.088 1.1405,-0.1486 v 1.0102 c -0.2238,0.088 -0.6534,0.179 -1.2463,0.179 -1.7789,0 -2.5352,-1.1286 -2.5352,-2.7516 z"
     fill="#0066ff"
     id="path20" />
  <path
     d="m 94.5145,20.6374 h -5.7388 c 0.0756,1.5624 1.0225,2.5424 2.4625,2.5424 1.2313,0 2.0753,-0.625 2.1781,-1.5898 h 1.0982 c -0.0756,1.5898 -1.3644,2.6031 -3.2914,2.6031 -2.2084,0 -3.6333,-1.4563 -3.6333,-3.7316 0,-2.2754 1.4098,-3.8499 3.603,-3.8499 2.1933,0 3.3217,1.2924 3.3217,3.4797 v 0.5492 z m -1.0982,-0.9526 c 0,-1.2924 -0.8016,-2.066 -2.1932,-2.066 -1.3039,0 -2.1781,0.7584 -2.402,2.157 h 4.5952 v -0.0879 z"
     fill="#0066ff"
     id="path22" />
  <path
     d="m 96.877,16.6725 h 2.0813 v 5.5488 h 5.8087 v 1.8112 h -7.89 v -7.3631 z"
     fill="#0066ff"
     id="path24" />
  <path
     d="m 105.475,16.7695 h 1.927 v 7.266 h -1.927 z"
     fill="#0066ff"
     id="path26" />
  <path
     d="m 108.533,16.6724 h 2.823 l 5.923,4.7782 h 0.018 v -4.7782 h 1.985 v 7.363 h -2.051 l -6.704,-5.3941 h -0.009 v 5.3941 h -1.985 z"
     fill="#0066ff"
     id="path28" />
  <path
     d="m 120.371,16.6724 h 8.347 v 1.7019 h -6.266 v 1.3319 h 4.874 v 1.2529 h -4.874 v 1.3774 h 6.393 v 1.7019 h -8.474 v -7.363 z"
     fill="#0066ff"
     id="path30" />
  <path
     d="m 131.001,16.7026 v 0.2943 h -0.496 v 1.3713 h -0.351 v -1.3713 h -0.499 v -0.2943 z"
     fill="#0066ff"
     id="path32" />
  <path
     d="m 131.522,18.3712 h -0.324 v -1.6686 h 0.505 l 0.303,1.3106 0.299,-1.3106 h 0.5 v 1.6686 h -0.324 v -1.1285 c 0,-0.0334 0,-0.0789 0,-0.1366 0,-0.0576 0,-0.1031 0,-0.1365 l -0.315,1.3986 h -0.339 l -0.311,-1.3986 c 0,0.0303 0,0.0759 0,0.1365 0,0.0607 0,0.1032 0,0.1366 v 1.1285 z"
     fill="#0066ff"
     id="path34" />
</svg>
